<?xml version="1.0" encoding="utf-8"?>
<!-- Generator: Adobe Illustrator 21.1.0, SVG Export Plug-In . SVG Version: 6.00 Build 0)  -->
<svg version="1.1" xmlns="http://www.w3.org/2000/svg" xmlns:xlink="http://www.w3.org/1999/xlink" x="0px" y="0px"
	 viewBox="0 0 135.8 135.8" style="enable-background:new 0 0 135.8 135.8;" xml:space="preserve">
<style type="text/css">
	.st0{fill:#FFFFFF;}
	.st1{fill:#2193CE;}
</style>
<g>
	<g>
		<g>
			<path class="st1" d="M120,106.4c0,3.9-1.6,6.8-4.5,9.1c-3.8,2.9-8.3,4.1-12.9,4.6c-2.9,0.3-5.9,0.4-9,0.6c0,0.5-0.1,1-0.1,1.6
				c0.3,3.6-1.4,6.2-4.2,8.2c-4.6,3.2-9.9,4.4-15.4,5.1c-10.1,1.1-18.9-2.2-27.4-7.4c-10.8-6.6-21.9-12.9-33-19.2
				c-1.1-0.7-1.5-1.4-1.5-2.7c0-23.9,0.1-47.9,0-71.8c0-1.6,0.6-2.3,1.8-3.2c2.2-1.7,4-1.4,6.4,0c0.3,0.2,0.5,0.3,0.8,0.5
				C33.2,39,45.5,46.2,58,53.1c8.2,4.5,16.7,4.2,24.8-0.4c4.4-2.5,4.6-6.4,0.6-9.5c-2.9-2.2-6.2-3.9-9.3-5.8
				c-9.8-5.7-19.6-11.3-29.4-16.9c-1.1-0.7-2-0.8-3.1,0c-0.8,0.6-1.8,1-2.8,1.6c0-0.2,0-0.5,0-0.7c0-1.2-0.1-2.4,0.1-3.5
				c0.1-0.5,0.5-1.1,0.9-1.4c3.5-2.5,3.5-2.4,7.3-0.2c0.1,0.1,0.2,0.1,0.3,0.2c12.9,7.5,25.7,15,38.7,22.3
				c5.6,3.1,11.7,2.8,17.7,1.4c2.6-0.6,4.9-1.8,6.8-3.7c2.6-2.5,2.6-6-0.2-8.3c-2-1.6-4.3-2.8-6.5-4.1C93.1,17.9,82.3,11.7,71.6,5.4
				c-1.4-0.8-2.4-1-3.6,0C67.2,6,66.3,6.4,65.2,7c0-0.3,0-0.6,0-1c0-1.3,0-2.5,0-3.7c0-0.3,0.5-0.7,0.8-0.9c2.5-2.3,4.8-2.1,7.9-0.3
				c13.4,8,27,15.7,40.5,23.5c3,1.8,5.2,4.2,5.5,7.8c0.1,0.6,0.1,1.3,0.1,2C120,58.4,119.9,82.4,120,106.4z"/>
		</g>
	</g>
</g>
</svg>
