<?xml version="1.0" encoding="utf-8"?>
<!-- Generator: Adobe Illustrator 21.1.0, SVG Export Plug-In . SVG Version: 6.00 Build 0)  -->
<svg version="1.1" xmlns="http://www.w3.org/2000/svg" xmlns:xlink="http://www.w3.org/1999/xlink" x="0px" y="0px"
	 viewBox="0 0 135.8 135.8" style="enable-background:new 0 0 135.8 135.8;" xml:space="preserve">
<style type="text/css">
	.st0{fill:#FFFFFF;}
	.st1{fill:#2193CE;}
</style>
<g>
	<circle class="st1" cx="67.9" cy="67.9" r="61.9"/>
	<path class="st1" d="M67.9,135.8C30.5,135.8,0,105.4,0,67.9S30.5,0,67.9,0s67.9,30.5,67.9,67.9S105.4,135.8,67.9,135.8z M67.9,1.8
		C31.5,1.8,1.8,31.5,1.8,67.9S31.5,134,67.9,134S134,104.4,134,67.9S104.4,1.8,67.9,1.8z"/>
	<g>
		<path class="st0" d="M56,72.6c1.5-2.6,2.8-4.5,3.8-6.5c1.1-2.3,2.8-2.7,4.6-1.2c3.2,2.5,6.1,5.3,9.5,8.2c5.3-5.3,6.8,0.7,9.2,4.7
			c1-1.7,1.8-3,2.5-4.2c1.7-2.8,2.5-3,5.3-1.3c5.3,3.2,7.8,8.1,7.9,14.2c0.1,5.1,0,10.2,0,15.3c0,2.2-1,3-3.2,3
			c-18.5,0-36.9,0-55.4,0c-2.2,0-3.3-0.8-3.2-3c0.1-7.5-0.1-15,0.5-22.5c0.5-6.7,4.5-11.5,10.4-14.6c1.9-1,3.2-0.6,4.2,1.3
			C53.2,68,54.5,70,56,72.6z M40.8,101c9.8,0,19.2,0,28.6,0c1.5,0,2-0.6,2-2.1c-0.1-5.9,0.2-11.7-0.1-17.6
			C71,75.6,68.2,71,62.8,68.1c-1.7,2.8-3.1,5.4-4.7,7.9c-1.5,2.5-2.8,2.6-4.4,0.1c-1.6-2.6-3.1-5.2-4.7-8c-4.8,2.7-7.8,6.6-8.1,11.6
			C40.4,86.5,40.8,93.6,40.8,101z M77,74.6c-1,1.8-2.2,2.9-2.3,4c-0.1,6.6,0.1,13.2,0.1,19.9c0,2.1,0.8,2.6,2.7,2.5
			c4.6-0.1,9.2,0,13.8,0c1.2,0,2.4,0,3.7,0c0-5.7,0.2-10.9-0.1-16.1c-0.2-4.1-2.3-7.4-6.3-9.6c-1.1,1.8-2.1,3.6-3.1,5.3
			c-1.9,3.3-3.1,3.3-5.1-0.1C79.6,78.8,78.6,77.2,77,74.6z"/>
		<path class="st0" d="M56,61.5c-8.5,0-15.1-6.7-15.1-15.2c0-8.2,6.7-15,15-15.2C64,31,71.1,38,71.2,46.3
			C71.3,54.7,64.4,61.5,56,61.5z M67.5,46.5c0.1-6.5-4.9-11.6-11.3-11.7c-6.6-0.1-11.9,5-12,11.4c-0.1,6.2,5.5,11.9,11.7,11.8
			C62.3,58.1,67.5,52.9,67.5,46.5z"/>
		<path class="st0" d="M95.6,57.1c0,6-4,11.2-9.6,12.4c-6.2,1.3-12.2-1.7-14.4-7.3c-0.4-1.1-0.3-3.3,0.3-3.7c1.8-1,2.3,0.9,2.9,2.2
			c1.9,4.1,6,6.3,10,5.5c4.1-0.9,7.1-4.4,7.4-8.5c0.2-4.2-2.6-8.2-6.9-9.1c-1.9-0.4-4.1,0.2-6.1,0.6c-1.3,0.3-2.8,1.3-3.3-0.5
			c-0.2-0.7,1.1-2.2,2-2.7C86.1,41.9,95.5,47.9,95.6,57.1z"/>
	</g>
</g>
</svg>
