<?xml version="1.0" encoding="utf-8"?>
<!-- Generator: Adobe Illustrator 21.1.0, SVG Export Plug-In . SVG Version: 6.00 Build 0)  -->
<svg version="1.1" xmlns="http://www.w3.org/2000/svg" xmlns:xlink="http://www.w3.org/1999/xlink" x="0px" y="0px"
	 viewBox="0 0 135.8 135.8" style="enable-background:new 0 0 135.8 135.8;" xml:space="preserve">
<style type="text/css">
	.st0{fill:#FFFFFF;}
</style>
<g>
	<path class="st0" d="M67.7,135.8C30.4,135.8,0,105.5,0,68.1S30.4,0.4,67.7,0.4s67.7,30.4,67.7,67.7S105,135.8,67.7,135.8z
		 M67.7,6.3C33.6,6.3,5.9,34.1,5.9,68.1S33.6,130,67.7,130s61.8-27.7,61.8-61.8S101.8,6.3,67.7,6.3z"/>
	<g>
		<path class="st0" d="M37.7,71.7c0-9,0-18.1,0-27.1c0-4.9,1.7-6.7,6.7-6.8c2.8-0.1,5.6-0.1,8.4,0c1.6,0,2.5-0.3,3.1-2.1
			c1.1-3.7,4.3-5.9,7.8-6c3.6-0.1,6.9,2.1,8.2,5.9c0.6,1.8,1.5,2.3,3.3,2.2c5.3-0.1,10.6-0.1,16,0c4.9,0.1,6.6,1.8,6.6,6.8
			c0,15.4,0.1,30.7-0.1,46.1c0,1.5-0.8,3.3-1.8,4.4c-3,3.4-6.2,6.6-9.6,9.6c-1.1,1-2.7,1.7-4.1,1.8c-12.5,0.1-24.9,0.1-37.4,0.1
			c-5.2,0-7.1-1.9-7.1-7.1C37.6,90.2,37.7,81,37.7,71.7z M59.6,44.6c2.1-0.7,3.2-0.4,3.5,2.3c0.1,1.1,1.5,2.9,2.6,3
			c2.4,0.4,3.4-1.6,3.2-3.7c-0.2-1.8,1.7-4.8-2.4-4.8c-7.2,0-14.5,0.1-21.7,0c-2.7-0.1-3.6,1-3.5,3.5c0,18.2,0,36.4,0,54.6
			c0,2.4,0.9,3.5,3.4,3.4c5.9-0.1,11.9-0.6,17.8,0.1c9.5,1.2,16.8-1.7,22.2-9.5c0.9-1.4,1.8-3.1,1.8-4.8c0.2-5.4,0.1-10.9,0.1-16.3
			c0-9.1,0.1-18.3-0.1-27.4c0-1.2-1.1-3.4-1.8-3.4c-3.9-0.3-7.9-0.2-11.8-0.2C71.6,51.7,70,54.1,65,53.5
			C61.1,53.1,59,49.7,59.6,44.6z M90,41.8c0,1.3,0,2.4,0,3.4c0,15.2,0.1,30.3-0.1,45.5c0,1.6-0.9,3.4-1.9,4.7
			c-2,2.4-4.4,4.5-6.6,6.7c0.2,0.2,0.4,0.5,0.6,0.7c0.6-0.3,1.4-0.4,1.9-0.9c3.2-3.1,6.3-6.2,9.3-9.4c0.6-0.6,0.9-1.8,0.9-2.7
			c0.1-15.1,0-30.1,0-45.2C94.1,42,93,40.9,90,41.8z M59.1,37.4c3.3,0,6.3,0,9.6,0c-0.9-2.7-2.4-3.9-4.8-3.9
			C61.5,33.5,60,34.8,59.1,37.4z"/>
		<path class="st0" d="M80.1,69c-1.4,0-2.4,0-3.6,0c0-2.7,0-5.2,0-8.1c-8.4,0-16.6,0-25.1,0c0,2.6,0,5.2,0,8
			c-1.2,0.1-2.2,0.2-3.5,0.3c0-3.3-0.3-6.4,0.1-9.4c0.1-1,2-2.5,3-2.5c8.5-0.2,17-0.1,25.6-0.1c2.4,0,3.4,1.6,3.5,3.7
			C80.2,63.5,80.1,66.1,80.1,69z"/>
		<path class="st0" d="M79.9,75.9c-0.7,0.8-1.4,2.4-2.1,2.4c-9.6,0.2-19.2,0.1-29.1,0.1c0-1.2,0-2.2,0-3.4C58.9,75,69,75,79,75
			C79.3,75.3,79.6,75.6,79.9,75.9z"/>
		<path class="st0" d="M48.6,87.1c0-1,0-1.9,0-3.2c1.4-0.1,2.7-0.2,3.9-0.2c8,0,16,0,24,0c2.4,0,3.5,0.6,2.6,3.4
			C69.1,87.1,58.9,87.1,48.6,87.1z"/>
		<path class="st0" d="M48.6,95.7c0-1.1,0-2.1,0-3.2c5.9,0,11.6,0,17.5,0c0,1.1,0,2,0,3.2C60.3,95.7,54.6,95.7,48.6,95.7z"/>
	</g>
</g>
</svg>
