<svg id="icon-06" version="1.1" xmlns="http://www.w3.org/2000/svg" xmlns:xlink="http://www.w3.org/1999/xlink" x="0px" y="0px"
	 viewBox="0 0 135.8 135.8" style="enable-background:new 0 0 135.8 135.8;" xml:space="preserve">
<style type="text/css">
	svg#icon-06 .st0{fill:#FFFFFF;}
</style>
<path class="st0" d="M128.6,49c-5.7,4.4-10.3,7.9-14.8,11.4c-8.1,6.2-16.2,12.4-24.1,18.8c-3.4,2.7-6,2.5-9.3-0.1
	c-11-8.7-22.2-17.3-33.3-25.9c-1.5-1.1-3-2.2-5.5-3.9c0,9.6,0,18.1,0,26.6c0,11,0,11-11.3,11c-1.2,0-2.7,0.3-3.6-0.2
	c-1.3-0.7-2.3-2.1-3.4-3.2c1.1-0.9,2.1-2.5,3.3-2.7c2.4-0.4,4.8-0.1,7.7-0.1c0-3.6,0-6.6,0-10.5c-5.6,0-11.2,0.2-16.7-0.1
	c-1.8-0.1-3.4-1.9-5.1-3c1.7-1.1,3.3-2.9,5-3c5.4-0.4,10.8-0.1,16.8-0.1c0-3.4,0-6.4,0-10.1c-6.3,0-12.6,0-18.8,0
	c-3.3,0-6.7,0.3-10-0.2c-1.5-0.2-2.8-2-4.2-3.1c1.5-1.1,3-3.2,4.5-3.2c9.4-0.3,18.9-0.2,29-0.2c0-2.9-0.1-5.3,0-7.7
	c0.3-5.6,3.8-9.1,9.5-9.1c27.2-0.1,54.4-0.1,81.7,0c5.7,0,9.4,3.5,9.4,9.1c0.1,20,0.2,40,0,60.1c-0.1,6.9-3.7,10.3-10.6,10.3
	c-28.1,0.1-56.2,0.1-84.3-0.1c-1.8,0-3.6-2.2-5.4-3.4c1.9-1.1,3.9-3.1,5.8-3.1c26.9-0.2,53.7-0.1,80.6-0.1c7.1,0,7.1,0,7.1-7.3
	C128.6,80.7,128.6,65.6,128.6,49z M85,37c-12.8,0-25.6-0.1-38.4,0.1c-1.6,0-3.1,1-4.6,1.5c0.9,1.4,1.4,3.2,2.6,4.1
	C57,52.5,69.5,62.1,81.9,71.8c2.4,1.9,4.1,1.8,6.4-0.1c12.3-9.7,24.7-19.1,36.9-28.8c1.3-1,1.9-3,2.9-4.5c-1.6-0.5-3.1-1.4-4.7-1.4
	C110.6,37,97.8,37,85,37z"/>
</svg>
