<svg id="icon-02" version="1.1" xmlns="http://www.w3.org/2000/svg" xmlns:xlink="http://www.w3.org/1999/xlink" x="0px" y="0px"
	 viewBox="0 0 135.8 135.8" style="enable-background:new 0 0 135.8 135.8;" xml:space="preserve">
<style type="text/css">
	svg#icon-02 .st0{fill:#FFFFFF;}
</style>
<path class="st0" d="M135.3,62.3c0-5.4,0-10.8,0-16.2c0-0.4,0-0.8,0-1.2c0-0.7-0.1-1.4-0.2-2.1c-0.1-0.6-0.2-1.1-0.3-1.7
	c0-0.1,0-0.1,0-0.1c-0.1-0.6-0.3-1.1-0.5-1.7c-0.2-0.6-0.4-1.1-0.6-1.6c0,0,0,0,0,0c-0.2-0.4-0.4-0.8-0.6-1.2
	c-0.2-0.4-0.4-0.7-0.6-1.1c-0.2-0.2-0.3-0.5-0.5-0.7c-0.2-0.2-0.3-0.4-0.5-0.6c-0.3-0.4-0.7-0.8-1.1-1.2c-0.2-0.2-0.4-0.4-0.6-0.6
	c-0.4-0.4-0.8-0.7-1.3-1c-0.2-0.2-0.5-0.3-0.7-0.5c-0.2-0.2-0.5-0.3-0.7-0.4c-0.3-0.2-0.6-0.3-0.9-0.5c-0.3-0.1-0.5-0.3-0.8-0.4
	c-0.8-0.3-1.5-0.6-2.4-0.8c-0.1,0-0.1,0-0.2-0.1c-0.9-0.2-1.8-0.4-2.8-0.5c-0.6-0.1-1.2-0.1-1.8-0.2c-0.3,0-0.6,0-0.9,0h0
	c-0.4,0-0.7,0-1.1,0c-3.6-0.1-7.2,0-10.9,0h-0.6c-1.8,0-3.5,0-5.3,0c-0.1-0.4-0.1-0.7-0.2-1.1c0,0,0,0,0,0c-0.2-1.3-0.4-2.4-0.5-3.4
	c-0.7-5.8-2.4-10.1-5.4-13c0,0,0,0,0,0c-1.6-1.6-3.5-2.8-5.8-3.6c-0.3-0.1-0.5-0.2-0.8-0.3c-0.2,0-0.3-0.1-0.5-0.1
	c-0.2-0.1-0.5-0.1-0.7-0.2c-0.3-0.1-0.7-0.1-1-0.2c-1.6-0.3-3.4-0.5-5.4-0.6c-0.3,0-0.6,0-0.9,0c-0.2,0-0.4,0-0.6,0h-1.1H76
	c-2.5,0-4.9,0-7.4,0h-1.8c-2.5,0-4.9,0-7.4,0h-0.6h-1.1c-0.2,0-0.4,0-0.6,0h-0.1c-0.3,0-0.5,0-0.8,0c-2,0-3.8,0.2-5.4,0.6
	c-0.3,0.1-0.7,0.1-1,0.2c-0.2,0.1-0.5,0.1-0.7,0.2c-0.2,0-0.3,0.1-0.5,0.1c-0.3,0.1-0.5,0.2-0.8,0.3c0,0,0,0-0.1,0
	c-0.3,0.1-0.5,0.2-0.8,0.3c-0.2,0.1-0.5,0.2-0.7,0.3c-1.6,0.7-3,1.7-4.2,2.9c-0.2,0.2-0.4,0.4-0.6,0.6c-2.6,2.9-4.2,7-4.8,12.4
	c-0.1,1.1-0.3,2.2-0.5,3.4c0,0,0,0,0,0c-0.1,0.3-0.1,0.7-0.2,1.1c-1.8,0-3.6,0-5.3,0H30c-3.6,0-7.3,0-10.9,0c-0.2,0-0.5,0-0.7,0
	c-0.1,0-0.3,0-0.4,0c-0.3,0-0.6,0-0.9,0c-0.6,0-1.2,0.1-1.8,0.2c-0.5,0.1-1,0.1-1.5,0.2c-0.5,0.1-0.9,0.2-1.4,0.3
	c-0.9,0.2-1.8,0.5-2.6,0.9c-0.3,0.1-0.5,0.2-0.8,0.4c-0.2,0.1-0.4,0.2-0.5,0.3c-0.4,0.2-0.7,0.4-1,0.6c-0.2,0.1-0.5,0.3-0.7,0.5
	c-0.5,0.3-0.9,0.6-1.3,1C5.4,32.6,5.2,32.8,5,33c-0.4,0.4-0.8,0.8-1.1,1.2c-0.2,0.2-0.3,0.4-0.5,0.6C3,35.5,2.5,36.2,2.2,37
	c-0.1,0.3-0.3,0.5-0.4,0.8c-0.2,0.5-0.4,0.9-0.5,1.4c-0.6,1.7-0.9,3.7-1,5.8c0,0.4,0,0.8,0,1.2c0,5.5,0,11,0,16.5
	c0,11.5,0,23,0,34.5c0,5.2,0,10.5,0,15.7c0,0.5,0,0.9,0,1.4c0,0.2,0,0.5,0,0.7c0,0.3,0.1,0.6,0.1,0.9c0,0,0,0.1,0,0.1
	c0,0.3,0.1,0.6,0.1,0.9c0.2,1.3,0.5,2.6,1,3.8c0,0,0,0,0,0c0.1,0.4,0.3,0.7,0.4,1s0.3,0.7,0.5,1c0.4,0.7,0.9,1.4,1.4,2.1
	c0.3,0.4,0.7,0.8,1,1.2c0.2,0.2,0.4,0.4,0.6,0.5c0.4,0.3,0.8,0.7,1.2,1c0.2,0.1,0.4,0.3,0.7,0.4c0.5,0.3,0.9,0.6,1.5,0.8
	c0.3,0.2,0.7,0.3,1,0.4c0.4,0.2,0.8,0.3,1.3,0.5c0.3,0.1,0.6,0.2,0.9,0.2c0.3,0.1,0.5,0.1,0.8,0.2c0.8,0.2,1.7,0.3,2.6,0.4
	c0.4,0,0.8,0.1,1.2,0.1c0.3,0,0.7,0,1,0c33.5,0.1,67,0.1,100.5,0c0.3,0,0.6,0,0.9,0c1,0,2-0.1,3-0.3c0.6-0.1,1.3-0.2,1.9-0.4
	c0.2,0,0.4-0.1,0.6-0.2h0c0.5-0.1,0.9-0.3,1.4-0.5c0.8-0.3,1.6-0.7,2.4-1.2c0.2-0.1,0.4-0.3,0.7-0.4c0.4-0.3,0.8-0.6,1.2-1
	c0.2-0.2,0.4-0.3,0.6-0.5c0.2-0.2,0.4-0.4,0.5-0.6c0.5-0.6,1.1-1.3,1.5-2c0.2-0.3,0.4-0.6,0.5-1c1.2-2.3,1.9-5.1,2-8.3
	c0-0.2,0-0.5,0-0.7c0-0.1,0-0.2,0-0.4c0-1.4,0-2.7,0-4.1c0-3.2,0-6.5,0-9.7C135.3,86.8,135.3,74.6,135.3,62.3z M46.9,16
	c0.1-0.1,0.2-0.3,0.4-0.4c0.1-0.1,0.3-0.3,0.4-0.4c0.7-0.6,1.4-1,2.3-1.4c0.2-0.1,0.4-0.2,0.5-0.2c0.2-0.1,0.4-0.1,0.5-0.2
	c0.2-0.1,0.4-0.1,0.6-0.2c0.1,0,0.2-0.1,0.3-0.1c1.2-0.3,2.5-0.5,3.9-0.6c0.3,0,0.5,0,0.8,0c0.4,0,0.9,0,1.3,0c1.5,0,3.1,0,4.6,0
	c1.7,0,3.4,0,5.2,0c1.7,0,3.4,0,5.2,0c1.5,0,3.1,0,4.6,0c0.6,0,1.2,0,1.8,0c0.1,0,0.2,0,0.3,0c1.5,0.1,2.8,0.3,3.9,0.6
	c0.1,0,0.2,0.1,0.3,0.1c0.2,0,0.4,0.1,0.6,0.2c0.2,0.1,0.4,0.1,0.5,0.2c0.2,0.1,0.4,0.1,0.5,0.2c0.9,0.4,1.6,0.9,2.3,1.4
	c0.1,0.1,0.1,0.1,0.2,0.2c0.1,0.1,0.1,0.1,0.2,0.2c0.1,0.1,0.2,0.2,0.4,0.4c1.9,2,2.9,4.8,2.8,8.2c0,1.1,0,2.3-0.2,3.6H44.3
	c-0.1-1.3-0.2-2.5-0.2-3.6C44,20.8,45,18,46.9,16z M115.1,35.7c7.8,0,11.3,2,11.2,7.1c0,0.2,0,0.4-0.1,0.6c-0.5,2.8-1.2,5.5-2.1,8
	c-1.6,4.3-3.7,8.1-6.2,11.6c0,0-0.1,0.1-0.1,0.1c-2.8,3.8-6.2,7.3-10.1,10.4c-0.5,0.4-1.1,0.8-1.6,1.3c-1.4-1.1-2.7-2-4-2.8
	c-4.4-2.5-8.2-3-11.4-1.5c-4.3,0.9-6.5,4.1-6.8,9.8c0,0.1,0,0.2,0,0.3c-0.2,3.2-1.4,4.4-4.6,4.3c-3.8,0-7.6,0-11.4,0h-0.5
	c-3.8,0-7.6,0-11.4,0c-3.2,0-4.4-1.1-4.6-4.3c0-0.1,0-0.2,0-0.3c-0.3-5.7-2.5-9-6.8-9.8c-3.1-1.5-7-1.1-11.4,1.5
	c-1.3,0.7-2.6,1.7-4,2.8c-0.5-0.4-1.1-0.8-1.6-1.3c-3.9-3.1-7.3-6.6-10.1-10.4c0,0-0.1-0.1-0.1-0.1c-2.4-3.4-4.4-7.2-6-11.3
	c0,0,0-0.1,0-0.1c-0.9-2.6-1.7-5.3-2.1-8.2c0-0.2-0.1-0.4-0.1-0.6c-0.1-5.1,3.3-7.1,11.2-7.1c0,0,0,0,0,0
	C52,35.7,83.5,35.7,115.1,35.7z M91.1,91.8c0-0.4,0-0.8,0-1.2c-0.2-2.4-0.2-4.8,0-7.1c0-0.4,0-0.8,0-1.2c-0.1-3,0.5-5.1,4.3-5.1
	c3.4,0.1,4,1.9,4,4.5v0.3c0,1.5,0,3.1,0,4.6v0c0,0.4,0,0.7,0,1h0c0,0.3,0,0.7,0,1.1c0.1,1.4,0.3,2.8,0,4c-0.1,2.3-0.8,4-4,4
	C91.6,96.9,91.1,94.8,91.1,91.8z M36.1,88.8c0-0.4,0-0.8,0-1.1h0c0-0.3,0-0.7,0-1v0c-0.1-1.6-0.3-3.3,0-4.8c0-2.6,0.6-4.5,4-4.5
	c3.8-0.1,4.3,2.1,4.3,5.1c0,0.4,0,0.8,0,1.2c0,1.2,0,2.4,0,3.6c0,1.2,0,2.4,0,3.6c0,0.4,0,0.7,0,1.1c0.1,3-0.5,5.1-4.3,5
	c-3.3-0.1-3.9-1.7-4-4.1v0C35.8,91.5,36,90.1,36.1,88.8z M128,115.2c-0.5,3.8-2.2,6.1-5.2,7.2c-0.2,0.1-0.4,0.2-0.6,0.2
	c-0.2,0.1-0.5,0.1-0.7,0.2c-0.2,0-0.4,0.1-0.6,0.1c-0.2,0-0.4,0.1-0.5,0.1c-0.6,0.1-1.3,0.2-2,0.2c-0.2,0-0.4,0-0.5,0
	c-0.3,0-0.6,0-0.9,0c-32.8,0-65.6,0-98.5,0c-0.3,0-0.6,0-0.9,0c-0.2,0-0.4,0-0.5,0c-0.7,0-1.4-0.1-2.1-0.2c-0.1,0-0.3-0.1-0.4-0.1
	c-0.4-0.1-0.8-0.2-1.1-0.3c-3.5-1-5.4-3.4-6-7.5c0,0,0,0,0,0c0-0.3,0-0.7,0-1.1C7.2,97.5,7.3,80.8,7.3,64.4c0,0,0,0,0,0
	c0.1-0.3,0.1-0.6,0.2-1c0.1-0.3,0.1-0.5,0.2-0.8c1.5,1.7,2.9,3.4,4.3,5.1c5.2,4.9,10.2,9.6,15.2,14.5c1,1,1.3,2.7,1.5,4.2
	c0.1,0.7,0.1,1.4,0.1,2.1c0.3,1.6,0.3,3.3,0.2,5.3c0,0.3,0,0.5,0,0.8c0.5,4.6,2.3,7.4,5.5,8.6c0.3,0.1,0.5,0.2,0.8,0.3
	c0.1,0,0.3,0.1,0.4,0.1c0.2,0,0.3,0.1,0.5,0.1c0.1,0,0.3,0.1,0.4,0.1c0.3,0.1,0.6,0.1,0.9,0.1c0.5,0.1,1.1,0.1,1.6,0.1
	c0.3,0,0.5,0,0.7,0c0.3,0,0.6,0,0.9,0c0.4,0,0.7,0,1.1,0c0,0,0,0,0,0c2.5-0.1,4.3-0.7,5.8-1.8c0,0,0.1-0.1,0.1-0.1
	c0.1-0.1,0.2-0.2,0.3-0.3c0.1-0.1,0.2-0.2,0.3-0.3c0.1-0.1,0.2-0.2,0.3-0.3c1.2-1.3,2-3.1,2.6-5.5c0.3-1.1,0.5-2.3,0.8-3.2h31.4
	c0.2,1,0.5,2.1,0.8,3.2c0.6,2.4,1.4,4.2,2.6,5.5c0.1,0.1,0.2,0.2,0.3,0.3l0.3,0.3c0.1,0.1,0.2,0.2,0.3,0.3c0,0,0.1,0,0.1,0.1
	c1.2,1,2.8,1.5,4.9,1.8c0.3,0,0.6,0.1,0.9,0.1c0.4,0,0.7,0,1.1,0c0.3,0,0.6,0,0.9,0c0.2,0,0.5,0,0.7,0c0.5,0,1-0.1,1.6-0.1
	c0.7-0.1,1.3-0.2,1.9-0.3c0.1,0,0.3-0.1,0.4-0.1c0.1,0,0.3-0.1,0.4-0.1c0.1,0,0.3-0.1,0.4-0.1c3.2-1.2,5-4,5.5-8.6
	c0-0.3,0-0.5,0-0.8c-0.2-1.9-0.1-3.6,0.1-5.2c0-0.7,0-1.5,0.1-2.2c0.2-1.5,0.6-3.2,1.6-4.2c5-4.9,10-9.6,15.2-14.5
	c1.4-1.7,2.8-3.4,4.3-5.1c0.1,0.3,0.1,0.6,0.2,0.8c0.1,0.4,0.2,0.7,0.2,1.1c0,16.4,0.2,33.1-0.1,49.7C128,114.5,128,114.9,128,115.2
	C128,115.2,128,115.2,128,115.2z"/>
</svg>
