<svg id="icon-09" version="1.1" xmlns="http://www.w3.org/2000/svg" xmlns:xlink="http://www.w3.org/1999/xlink" x="0px" y="0px"
	 viewBox="0 0 135.8 135.8" style="enable-background:new 0 0 135.8 135.8;" xml:space="preserve">
<style type="text/css">
	svg#icon-09 .st0{fill:#FFFFFF;}
</style>
<path class="st0" d="M69.5,135.9c-12,0-24,0.1-36,0c-10.7-0.1-17.9-5.9-18.5-16.4c-0.6-12-0.5-24,0.5-35.9c0.3-4.2,4.1-8.2,6.3-12.3
	c1.1-2.2,2.7-4.4,3-6.7c0.8-6.5,0.1-13.2,1.5-19.4c2.8-12.6,10.6-21.7,22.2-27.4c2.9-1.4,4.2-3,4.2-6.3c0.1-6.6,3.6-10.1,10.1-10.6
	c4.2-0.3,8.5-0.3,12.7,0C82.3,1.1,85.8,4.6,86,11.5c0.1,3.1,1.1,4.6,3.8,6c15.7,8,23.7,21,24,38.7c0,2.5,0.2,5,0,7.4
	c-0.2,3.4,0.7,5.9,3.6,8.2c5.1,4,6.5,9.9,6.7,16.1c0.2,9.7,0.2,19.4,0,29.2c-0.3,12.1-7.3,18.8-19.5,18.8
	C92.8,135.9,81.1,135.9,69.5,135.9z M107.4,108.3c0-18.5,0-37.1,0-55.8c-7.4,9-15.4,15.8-26.3,19c-1.1,0.3-2,3-2.2,4.6
	c-0.6,7.1-3.1,9.9-9.6,9.9c-6.5,0-9.3-2.8-9.5-9.8c-0.1-3.2-1.4-4.3-4.2-5.6c-5.5-2.6-10.9-5.8-15.8-9.4c-3.1-2.3-5.4-5.8-9.1-10
	c0,20.1,0,38.8,0,57.3c-4.9,1.6-6.2,0-6.1-4c0.2-8.5,0.1-17,0.1-25.6c-0.5-0.1-1.1-0.2-1.6-0.3c-0.6,1.5-1.8,3-1.8,4.5
	c-0.1,12.7-0.3,25.4,0,38.1c0.1,4.2,3.4,7,7.5,7.9c3.7,0.7,7.6,0.8,12.3,1.2c0-8.6-0.1-16.3,0-24c0.2-9.4,4-13.1,13.3-13.1
	c9-0.1,18,0,27,0c12.4,0,15.5,3.2,15.6,15.7c0,6.8,0,13.7,0,21c3.8,0,6.8,0.3,9.7-0.1c6.4-0.8,10.2-3.9,10.4-10
	c0.4-12,0.1-24-0.1-36c0-1.7-1.4-3.4-2.2-5.1c-0.4,0.1-0.9,0.3-1.3,0.4c0,8.5-0.1,16.9,0.1,25.4
	C113.9,108.8,112.3,110.1,107.4,108.3z M79.6,65.3c11.4-3.4,18.9-10.6,23.6-20.8c0.6-1.3,0-3.5-0.8-4.9c-7-13-17.7-20.2-32.8-20.3
	c-15.4-0.1-26.2,7-33.4,20.3c-0.8,1.4-1.4,3.6-0.8,4.9c4.7,10.2,12.2,17.4,23.7,20.9c1.1-6.4,4.6-9,10.7-8.9
	C75.7,56.6,78.4,59.6,79.6,65.3z M68.9,129.4C68.9,129.4,68.9,129.4,68.9,129.4c6.2,0,12.4,0.2,18.5-0.2c1.3-0.1,3.6-2.2,3.6-3.5
	c0.3-7,0.2-14.1,0.1-21.1c0-3.7-2-5.5-5.6-5.5c-10.8,0-21.5,0-32.3,0c-3.9,0-5.9,1.9-5.9,5.9c0,6.7,0.1,13.4-0.1,20.1
	c-0.1,3.5,1.4,4.6,4.7,4.5C57.6,129.3,63.3,129.4,68.9,129.4z M58.9,13c6.9,0,13.8,0,20.7,0C80.4,8.9,78.6,7,75,6.8
	c-3.8-0.2-7.7-0.2-11.6,0C59.9,7,58.1,9,58.9,13z M72.7,71.4c0-1.8,0.5-3.7-0.1-5.2c-0.5-1.4-2.2-2.3-3.4-3.4
	c-1.1,1.2-3,2.2-3.2,3.5c-0.5,3.3-0.5,6.7,0,10c0.2,1.3,2.2,2.3,3.3,3.5c1.1-1.2,2.6-2.3,3.2-3.7C73.1,74.7,72.7,72.9,72.7,71.4z"/>
</svg>
