<svg id="icon-05" version="1.1" xmlns="http://www.w3.org/2000/svg" xmlns:xlink="http://www.w3.org/1999/xlink" x="0px" y="0px"
	 viewBox="0 0 135.8 135.8" style="enable-background:new 0 0 135.8 135.8;" xml:space="preserve">
<style type="text/css">
	svg#icon-05 .st0{fill:#FFFFFF;}
</style>
<g>
	<path class="st0" d="M20.3,135.3L20.3,135.3c-0.3-0.1-0.6-0.2-0.9-0.3c-2.6-0.5-4.7-1.6-6.5-3.2c-3.4-2.9-5-6.7-5-11.4
		c0-20.8,0-41.6,0-62.5l0-27.6c0-0.5,0-1,0-1.4c0.3-6.3,4.8-11.7,10.8-12.9c1.5-0.3,3.2-0.4,4.9-0.4c0.8,0,1.6,0,2.4-0.1
		c0.1,0,0.3,0,0.4,0l0.9,0h2l0-3.5c0-1,0-1.9,0-2.8c0.1-3.3,1.2-5.6,3.5-7.2c0.7-0.5,1.6-0.8,2.6-1.2c0.4-0.1,0.7-0.3,1.1-0.4h1.9
		c0.1,0.1,0.3,0.1,0.4,0.1c4,1.1,6.2,3.6,6.5,7.6c0.1,1.1,0.1,2.3,0.1,3.5l0,0.9c0,2.2,1.5,2.9,2.8,2.9c1.1,0,2.1,0,3.2,0
		c1.9,0,3.8,0,5.7,0c1.3,0,2.6-1.3,2.7-2.6c0.1-0.8,0.1-1.6,0-2.3c0-0.4,0-0.8,0-1.1C60.2,6.8,61,4.7,62.6,3
		c1.1-1.1,2.4-1.8,4.7-2.4h2c0.1,0.1,0.3,0.1,0.4,0.1c3.5,0.9,5.5,2.8,6.2,5.9c0.4,1.5,0.4,3.1,0.4,4.9l0,1.1c0.1,2,1.2,3.1,3.1,3.1
		c1.5,0,2.9,0,4.3,0c1.3,0,2.6,0,3.9,0l0.1,0c1,0,1.7-0.3,2.3-0.9c0.9-0.9,0.8-2,0.8-2.5c0-1.6,0-3.1,0.1-4.5
		c0.2-2.3,1.2-4.1,2.9-5.3c0.8-0.6,1.8-1,2.9-1.5c0.4-0.2,0.8-0.3,1.2-0.5h1.8c0.1,0,0.2,0.1,0.4,0.1c4.3,1,6.8,4,6.9,8.5
		c0,0.5,0,0.9,0,1.4c0,0.4,0,0.9,0,1.3c0,0.3,0,0.5,0,0.7c0,0.7,0,1.6,0.7,2.4c0.8,0.8,1.7,0.8,2.7,0.8l2,0c0.5,0,1.1,0,1.7,0.1
		c4.3,0.4,7.7,2.2,10.3,5.6c2,2.6,2.9,5.6,2.9,9.4c0,20.5,0,41,0,61.4l0,27.8c0,0.7,0,1.4,0,2c-0.4,5.1-2.8,8.9-6.9,11.2
		c-1.1,0.6-2.5,1.1-3.9,1.5c-0.6,0.2-1.2,0.4-1.7,0.6H20.3z M67.2,129.9c15.2,0,30.4,0,45.6,0c0,0,0,0,0,0c2.6,0,4.9-0.9,6.7-2.6
		c1.7-1.7,2.7-4.1,2.7-6.7c-0.1-20.4-0.1-41.1,0-61.2l0-20.8c0-0.3,0-0.6,0-0.9l-0.1-2.4H13.5l-0.1,2.3c0,0.3,0,0.5,0,0.7
		c0,27.5,0,54.9,0,82.4c0,0.7,0,1.6,0.3,2.5c1,4.1,4.4,6.6,9,6.6L67.2,129.9z M61.8,21.2c0,2.3,0,4.6,0,6.9c0.1,2.6,1.5,4.8,4.1,5.9
		c0.8,0.3,1.6,0.5,2.4,0.5c0,0,0,0,0,0c1.4,0,2.7-0.5,4-1.5c1.7-1.4,2.5-3.3,2.5-5.8l0-3.8c0-4.7,0-9.3,0-14c0-0.6-0.1-1.3-0.2-2
		c-0.6-3-3.2-5.2-6.3-5.2c-0.5,0-1.1,0.1-1.6,0.2c-3,0.8-4.8,3.2-4.9,6.5c0,2.2,0,4.4,0,6.6c0,0.9,0,4.9,0,4.9h0
		C61.8,20.7,61.8,21,61.8,21.2z M37.6,2.2c-1.1,0-2.1,0.3-3,0.8C32.9,3.9,31,5.7,31,9.4c0,3.6,0,7.2,0,10.8l0,7c0,0.4,0,0.9,0.1,1.4
		c0.5,3.3,3.2,5.8,6.4,5.8c0,0,0,0,0,0c0.9,0,1.7-0.2,2.5-0.5c2.6-1.2,4-3.5,4.1-6.5c0-2.1,0-4.3,0-6.4l0-4.8h0c0-0.3,0-0.6,0-0.9
		c0-2.2,0-4.5,0-6.8C43.9,5,41,2.2,37.6,2.2z M99.1,2.2c-0.8,0-1.6,0.1-2.4,0.4c-2.5,0.9-4.2,3.6-4.2,6.5c0,2.1,0,4.1,0,6.2l0,5.3
		c0,2.1,0,4.3,0,6.4c0,0.7,0.1,1.7,0.4,2.7c0.8,2.8,3.3,4.7,6.1,4.7c1.6,0,3.2-0.6,4.4-1.8c1.5-1.4,2.2-3.3,2.2-5.7
		c0-5.7,0-11.5,0-17.2c0-0.8-0.1-1.5-0.2-2.2C104.8,4.4,102.2,2.2,99.1,2.2z"/>
	<path class="st0" d="M26,67.6c0,0,0-9.1,0-11.3c2.6,0,5.2,0,7.8,0h5.5v11.3H26z"/>
	<path class="st0" d="M96.2,67.7V56.3c0,0,10.6,0,13.3,0c0,2.9,0,5.7,0,8.6l0,2.8H96.2z"/>
	<path class="st0" d="M62.8,88.5c-2.2,0-4.4,0-6.6,0l-6.9,0c0-2.9,0-5.7,0-8.6l0-2.8h13.4l0,3C62.7,83,62.7,85.7,62.8,88.5z"/>
	<path class="st0" d="M86.1,88.5c-2.2,0-4.4,0-6.6,0c-2.3,0-4.5,0-6.8,0c0-2.8,0-5.7,0-8.5l0-2.9h13.4l0,3.1
		C86.1,83.1,86.1,85.8,86.1,88.5z"/>
	<path class="st0" d="M26,109.3c0-2.9,0-5.8,0-8.7l0-2.7h13.3v11.4l-4.7,0C31.7,109.3,28.8,109.3,26,109.3z"/>
	<path class="st0" d="M62.7,109.3c-2.3,0-4.5,0-6.8,0l-6.6,0c0-2.9,0-5.7,0-8.6l0-2.8h13.4l0,5.2C62.7,105.2,62.7,107.3,62.7,109.3z
		"/>
	<path class="st0" d="M86.1,109.3c-2.2,0-4.3,0-6.5,0c-1.9,0-7,0-7,0c0-2.8,0-5.7,0-8.5l0-2.9h13.4l0,3.1
		C86.1,103.8,86.1,106.6,86.1,109.3z"/>
	<path class="st0" d="M109.5,109.3c-3.4,0-6.8,0-10.1,0l-3.2,0V98h13.3l0,3.9C109.5,104.3,109.5,106.8,109.5,109.3z"/>
	<path class="st0" d="M49.4,67.6V56.3c0,0,10.6,0,13.3,0c0,2.9,0,5.8,0,8.6l0,2.7H49.4z"/>
	<path class="st0" d="M86.1,67.7c-2.5,0-5.1,0-7.6,0h-5.8l0-5.6c0-1.9,0-3.8,0-5.8c2.3,0,4.6,0,6.8,0c2.2,0,4.4,0,6.6,0
		C86.1,59.8,86.1,63.4,86.1,67.7z"/>
	<path class="st0" d="M26,88.5c0-2.7,0-5.5,0-8.2l0-3.1h13.2v11.4C39.2,88.5,26.7,88.5,26,88.5z"/>
	<path class="st0" d="M109.5,88.5c-3.4,0-6.9,0-10.3,0l-3,0V77.2h13.3C109.5,77.2,109.5,86.1,109.5,88.5z"/>
</g>
</svg>
