<svg id="icon-01" version="1.1" xmlns="http://www.w3.org/2000/svg" xmlns:xlink="http://www.w3.org/1999/xlink" x="0px" y="0px"
  viewBox="0 0 135.4 135.4" style="enable-background:new 0 0 135.4 135.4;" xml:space="preserve">
	<style type="text/css">
		svg#icon-01 .st0 {
			fill: #FFFFFF;
		}
	</style>
	<g>
		<path class="st0" d="M27.2,8.4C12.8,8.2,0.3,20.4,0,35c-0.3,14.4,11.9,26.9,26.5,27.1c15.1,0.2,27.3-11.7,27.3-26.7
		C53.8,20.8,41.9,8.7,27.2,8.4z M26.6,55C15.9,54.9,7,45.9,7.1,35.3c0.1-10.8,9.5-20.1,20.2-19.8c10.7,0.3,19.5,9.3,19.5,19.9
		C46.7,46.4,37.7,55.2,26.6,55z" />
		<path class="st0" d="M20.6,81.2c8.1-2.8,15.2-0.4,22,6.6c1.7,2.2,3.6,4.6,6.5,1.7c3.3-3.4-1.1-6.1-3.1-8.3
		c-2.1-2.3-4.6-4.1-7.4-5.4c-0.4-0.2-0.9-0.4-1.3-0.6c-0.1,0-0.2-0.1-0.2-0.1c-2.8-1.1-5.7-1.7-8.7-1.9c-0.3,0-0.5,0-0.8,0
		c-4.8-0.1-9.6,1-13.9,3.4c-3.6,2-6.5,4.8-8.8,8c-0.1,0.2-0.3,0.4-0.4,0.6c-0.2,0.2-0.3,0.5-0.5,0.7c-1.3,2-2.3,4.3-2.9,6.6
		c-0.3,1.1-0.5,2.2-0.6,3.2c0,0.1,0,0.2,0,0.3c-0.1,0.6-0.1,1.1-0.2,1.7c0,0.3,0,0.6,0,0.8c0,0.4,0,0.8,0,1.2c0,0.4,0,0.8,0,1.2
		c0,0.3,0,0.6,0,0.8c0,0.6,0.1,1.1,0.2,1.7c0,0.1,0,0.2,0,0.3c0.2,1.1,0.4,2.2,0.6,3.2c0.6,2.4,1.6,4.6,2.9,6.6
		c0.2,0.3,0.3,0.5,0.5,0.7c0.1,0.2,0.2,0.4,0.4,0.6c2.2,3.2,5.2,6,8.8,8c4.3,2.4,9.1,3.5,13.9,3.4c0.3,0,0.5,0,0.8,0
		c2.9-0.1,5.9-0.7,8.7-1.9c0.1,0,0.2-0.1,0.2-0.1c0.4-0.2,0.9-0.4,1.3-0.6c2.8-1.3,5.3-3.1,7.4-5.4c2-2.2,6.5-5,3.1-8.3
		c-2.9-2.9-4.7-0.5-6.5,1.7c-6.8,7-13.9,9.3-22,6.6c-7.8-2.7-13.2-9.8-13.5-18c0-0.2,0-0.5,0-0.7c0-0.2,0-0.5,0-0.7
		C7.4,91,12.8,83.8,20.6,81.2z" />
		<path class="st0" d="M99.4,30.2c10.1,0,20.2,0,30.3,0c2.7,0,6.1,0.1,5.6-3.6c-0.1-1.3-3.6-3.2-5.5-3.3c-20-0.2-40.1-0.2-60.1,0
		c-1.9,0-3.8,2.2-5.7,3.4c1.9,1.2,3.7,3.2,5.6,3.3C79.5,30.4,89.5,30.2,99.4,30.2z" />
		<path class="st0" d="M129.7,88c-9.9,0-19.9,0-29.8,0c-10.1,0-20.2-0.2-30.3,0.2c-1.9,0.1-3.7,2.2-5.6,3.3c1.9,1.2,3.8,3.3,5.7,3.4
		c20,0.2,40.1,0.2,60.1,0c1.9,0,5.4-1.9,5.5-3.3C135.7,88,132.5,88,129.7,88z" />
		<path class="st0" d="M87.6,47.2c6.2,0,12.4,0.2,18.6-0.2c1.8-0.1,3.4-2.1,5.1-3.2c-1.7-1.2-3.3-3.4-5-3.5
		c-12.4-0.3-24.8-0.3-37.2,0c-1.7,0-3.4,2.2-5.1,3.4c1.7,1.2,3.3,3.2,5,3.3C75.2,47.5,81.4,47.2,87.6,47.2z" />
		<path class="st0" d="M87.9,105.1c-6.2,0-12.4-0.2-18.6,0.1c-1.8,0.1-3.5,2-5.3,3.1c1.6,1.2,3.2,3.5,4.9,3.6
		c12.5,0.3,25.1,0.3,37.7,0c1.6,0,3.1-2.4,4.7-3.8c-1.6-1-3.2-2.8-4.8-2.9C100.2,104.8,94,105.1,87.9,105.1z" />
	</g>
</svg>