<svg id="icon-07" version="1.1" xmlns="http://www.w3.org/2000/svg" xmlns:xlink="http://www.w3.org/1999/xlink" x="0px" y="0px"
	 viewBox="0 0 135.8 135.8" style="enable-background:new 0 0 135.8 135.8;" xml:space="preserve">
<style type="text/css">
	svg#icon-07 .st0{fill:#FFFFFF;}
</style>
<path class="st0" d="M103.8,92.6C91.7,89,80.2,85.3,68.5,82.3c-3.6-0.9-7.7-0.1-12-0.1c1.5,2.3,3.6,4.3,4,6.6c0.5,2.9,0.7,6.9-0.8,9
	c-2.7,3.6-1.9,6.3-0.3,9.6c2.4,4.8,4.3,10.1,0,14.3c-5,5-11.4,8.6-18.6,6.6c-3.1-0.8-6.1-4.7-7.6-7.9C27,107.3,21.5,93.9,15.6,80.6
	c-1-2.2-2.3-4.5-4-6.1C0.7,64.2-2.7,51.1,2.3,37.9c4.6-12.1,16.8-20.2,30.9-20.3c10.6-0.1,21.3-0.2,31.9,0c11.2,0.2,21-4.3,30.9-8.6
	c2.4-1,4.8-2,7.8-3.2C103.8,35.3,103.8,64.2,103.8,92.6z M97,83.9c0-23.1,0-44.9,0-67.9c-13.2,7.1-26.7,9.1-40.6,8.9
	c-0.8,0-2.4,2-2.4,3.2c-0.2,14.5-0.2,29.1,0,43.6c0,1.1,2,3,3,3C70.7,74.6,83.8,76.5,97,83.9z M46.8,49.8c0-6.9-0.1-13.8,0.1-20.7
	c0.1-3.2-1.1-4.5-4.3-4.4c-4.2,0.2-8.5,0-12.7,0.5C16.4,27,6.8,37.7,7.2,50.4c0.4,13.2,11,23.7,24.7,24.4c3.5,0.2,7.1-0.1,10.6,0.1
	c3.3,0.2,4.4-1.1,4.3-4.3C46.7,63.6,46.8,56.7,46.8,49.8z M24,81.9c5.2,12,10.4,23.7,15.3,35.7c2.1,5.2,5.1,4.8,9.2,2.9
	c3.9-1.8,7.3-1.8,5.7-7.9c-1.6-5.8-4.8-14-4.8-14c1.5-2.5,4.7-5.6,4.1-7.4c-1.6-5.1-5.6-1.9-9.1-0.7c-1-2.1-3.8-8.4-3.8-8.4
	C36.4,81.7,29,81.9,24,81.9z"/>
<path class="st0" d="M135.4,46.7c0,1.9,0,3.8,0,6.1c-5.4,0-10.9,0-16.8,0c0-2,0-3.8,0-6.1C124.2,46.7,129.7,46.7,135.4,46.7z"/>
<path class="st0" d="M110.8,83c0-2.7,0-4.4,0-6.6c5.4,0,10.8,0,16.1,0c1.5,6.2,1.2,6.6-4.6,6.6C118.6,83.1,114.9,83,110.8,83z"/>
<path class="st0" d="M127.6,23.2c-6,0-11,0-16.5,0c0-2.1,0-4.1,0-6.4c5.1,0,10.3,0,16.2,0C127.3,18.7,127.4,20.7,127.6,23.2z"/>
</svg>
