<?xml version="1.0" encoding="utf-8"?>
<!-- Generator: Adobe Illustrator 21.1.0, SVG Export Plug-In . SVG Version: 6.00 Build 0)  -->
<svg version="1.1" xmlns="http://www.w3.org/2000/svg" xmlns:xlink="http://www.w3.org/1999/xlink" x="0px" y="0px"
	 viewBox="0 0 135.8 135.8" style="enable-background:new 0 0 135.8 135.8;" xml:space="preserve">
<style type="text/css">
	.st0{fill:#FFFFFF;}
	.st1{fill:#2193CE;}
</style>
<g>
	<path class="st1" d="M67.9,135.8C30.5,135.8,0,105.4,0,67.9S30.5,0,67.9,0s67.9,30.5,67.9,67.9S105.4,135.8,67.9,135.8z M67.9,1.8
		C31.5,1.8,1.8,31.5,1.8,67.9S31.5,134,67.9,134S134,104.4,134,67.9S104.4,1.8,67.9,1.8z"/>
	<circle class="st1" cx="67.9" cy="67.9" r="61.9"/>
	<g>
		<path class="st0" d="M39.2,71.4c0-8.7,0-17.3,0-26c0-4.7,1.6-6.4,6.4-6.5c2.7-0.1,5.4-0.1,8.1,0c1.5,0,2.4-0.3,2.9-2
			c1.1-3.5,4.1-5.6,7.5-5.8c3.4-0.1,6.6,2,7.9,5.6c0.6,1.7,1.5,2.2,3.1,2.1c5.1-0.1,10.2-0.1,15.3,0c4.7,0.1,6.3,1.8,6.4,6.5
			c0,14.7,0.1,29.4-0.1,44.1c0,1.4-0.8,3.1-1.8,4.2c-2.9,3.2-6,6.3-9.2,9.2c-1,0.9-2.6,1.7-4,1.7c-11.9,0.1-23.8,0.1-35.8,0.1
			c-5,0-6.7-1.8-6.8-6.8C39.2,89,39.2,80.2,39.2,71.4z M60.2,45.4c2-0.7,3.1-0.4,3.3,2.2c0.1,1.1,1.5,2.8,2.5,2.9
			c2.3,0.4,3.2-1.6,3-3.5c-0.2-1.7,1.6-4.6-2.3-4.6c-6.9,0-13.8,0.1-20.8,0c-2.6,0-3.4,1-3.4,3.4c0,17.4,0,34.8,0,52.2
			c0,2.3,0.8,3.3,3.2,3.3c5.7-0.1,11.4-0.6,17,0.1c9.1,1.1,16.1-1.6,21.2-9.1c0.9-1.3,1.7-3,1.8-4.5c0.2-5.2,0.1-10.4,0.1-15.6
			c0-8.7,0.1-17.5-0.1-26.2c0-1.2-1.1-3.2-1.8-3.3c-3.8-0.3-7.6-0.2-11.3-0.2c-1,9.7-2.6,12.1-7.3,11.5
			C61.6,53.5,59.6,50.3,60.2,45.4z M89.2,42.7c0,1.2,0,2.2,0,3.3c0,14.5,0.1,29-0.1,43.5c0,1.5-0.9,3.2-1.9,4.5
			c-1.9,2.3-4.2,4.3-6.3,6.4c0.2,0.2,0.4,0.5,0.5,0.7c0.6-0.3,1.4-0.4,1.8-0.8c3-2.9,6-5.9,8.9-9c0.6-0.6,0.8-1.7,0.9-2.6
			c0-14.4,0-28.8,0-43.2C93.2,42.9,92.1,41.9,89.2,42.7z M59.7,38.5c3.2,0,6,0,9.1,0c-0.9-2.6-2.3-3.7-4.6-3.7
			C62,34.8,60.5,36,59.7,38.5z"/>
		<path class="st0" d="M79.8,68.8c-1.3,0-2.3,0-3.5,0c0-2.6,0-5,0-7.7c-8.1,0-15.9,0-24,0c0,2.5,0,4.9,0,7.6
			c-1.2,0.1-2.1,0.2-3.4,0.2c0-3.1-0.2-6.1,0.1-9c0.1-0.9,1.9-2.4,2.9-2.4c8.1-0.2,16.3-0.1,24.4-0.1c2.3,0,3.2,1.5,3.3,3.6
			C79.9,63.5,79.8,66,79.8,68.8z"/>
		<path class="st0" d="M79.6,75.4c-0.7,0.8-1.3,2.3-2,2.3c-9.2,0.2-18.4,0.1-27.8,0.1c0-1.2,0-2.1,0-3.2c9.7,0,19.4,0,29,0
			C79,74.8,79.3,75.1,79.6,75.4z"/>
		<path class="st0" d="M49.7,86c0-1,0-1.9,0-3c1.3-0.1,2.6-0.2,3.8-0.2c7.7,0,15.3,0,23,0c2.3,0,3.3,0.6,2.4,3.2
			C69.2,86,59.5,86,49.7,86z"/>
		<path class="st0" d="M49.7,94.3c0-1.1,0-2,0-3c5.6,0,11.1,0,16.8,0c0,1,0,1.9,0,3C60.8,94.3,55.3,94.3,49.7,94.3z"/>
	</g>
</g>
</svg>
