<?xml version="1.0" encoding="utf-8"?>
<!-- Generator: Adobe Illustrator 21.1.0, SVG Export Plug-In . SVG Version: 6.00 Build 0)  -->
<svg version="1.1" xmlns="http://www.w3.org/2000/svg" xmlns:xlink="http://www.w3.org/1999/xlink" x="0px" y="0px"
	 viewBox="0 0 75.6 135.8" style="enable-background:new 0 0 75.6 135.8;" xml:space="preserve">
<style type="text/css">
	.st0{fill:#FFFFFF;}
</style>
<g>
	<path class="st0" d="M56.7,79.3c-1.3-1.3-3.4-1.3-4.7,0c-1.3,1.3-1.3,3.4,0,4.7l10.4,10.4H5.7c-1.8,0-3.3,1.5-3.3,3.3
		c0,1.8,1.5,3.3,3.3,3.3h56l-9.7,9.7c-1.3,1.3-1.3,3.4,0,4.7c0.6,0.6,1.5,1,2.3,1c0.8,0,1.7-0.3,2.3-1L72,100.2c0.6-0.6,1-1.5,1-2.3
		v-0.9c0-0.9-0.3-1.7-1-2.3L56.7,79.3z"/>
	<path class="st0" d="M18.6,70.8c0.6,0.6,1.5,1,2.3,1s1.7-0.3,2.3-1c1.3-1.3,1.3-3.4,0-4.7l-9.7-9.7h56c1.8,0,3.3-1.5,3.3-3.3
		c0-1.8-1.5-3.3-3.3-3.3H12.9l10.4-10.4c1.3-1.3,1.3-3.4,0-4.7c-1.3-1.3-3.4-1.3-4.7,0L3.3,49.9c-0.6,0.6-1,1.5-1,2.3v0.9
		c0,0.9,0.3,1.7,1,2.3L18.6,70.8z"/>
</g>
</svg>
