<?xml version="1.0" encoding="utf-8"?>
<!-- Generator: Adobe Illustrator 21.1.0, SVG Export Plug-In . SVG Version: 6.00 Build 0)  -->
<svg version="1.1" xmlns="http://www.w3.org/2000/svg" xmlns:xlink="http://www.w3.org/1999/xlink" x="0px" y="0px"
	 viewBox="0 0 135.8 135.8" style="enable-background:new 0 0 135.8 135.8;" xml:space="preserve">
<style type="text/css">
	.st0{fill:#FFFFFF;}
</style>
<g>
	<path class="st0" d="M67.9,135.8c-37.3,0-67.7-30.4-67.7-67.7S30.6,0.4,67.9,0.4s67.7,30.4,67.7,67.7S105.2,135.8,67.9,135.8z
		 M67.9,6.3C33.8,6.3,6.1,34.1,6.1,68.1S33.8,130,67.9,130s61.8-27.7,61.8-61.8S102,6.3,67.9,6.3z"/>
	<g>
		<path class="st0" d="M55.4,73c1.6-2.7,2.9-4.7,4-6.8c1.2-2.4,2.9-2.8,4.9-1.3c3.3,2.6,6.4,5.5,9.9,8.6c5.5-5.5,7.1,0.7,9.6,4.9
			c1.1-1.8,1.8-3.1,2.6-4.4c1.7-2.9,2.6-3.2,5.5-1.4c5.5,3.4,8.1,8.5,8.3,14.8c0.1,5.3,0,10.7,0,16c0,2.3-1.1,3.2-3.4,3.2
			c-19.3,0-38.6,0-57.9,0c-2.3,0-3.4-0.9-3.4-3.2c0.1-7.8-0.1-15.7,0.5-23.5c0.5-7,4.7-12,10.9-15.3c2-1.1,3.4-0.6,4.4,1.3
			C52.5,68.2,53.9,70.3,55.4,73z M39.6,102.7c10.2,0,20.1,0,29.9,0c1.6,0,2.1-0.7,2.1-2.2c-0.1-6.1,0.2-12.3-0.1-18.4
			c-0.3-6-3.2-10.7-8.8-13.9c-1.7,3-3.3,5.7-4.9,8.3c-1.6,2.7-3,2.7-4.6,0.1c-1.7-2.7-3.2-5.5-4.9-8.4c-5,2.8-8.1,6.9-8.5,12.1
			C39.1,87.6,39.6,95,39.6,102.7z M77.5,75.1c-1.1,1.9-2.4,3-2.4,4.2c-0.1,6.9,0.1,13.8,0.1,20.8c0,2.2,0.9,2.7,2.9,2.7
			c4.8-0.1,9.6,0,14.5,0c1.2,0,2.5,0,3.8,0c0-6,0.2-11.4-0.1-16.8c-0.2-4.3-2.4-7.7-6.5-10.1c-1.1,1.9-2.2,3.7-3.2,5.5
			c-2,3.5-3.3,3.4-5.4-0.1C80.1,79.5,79.1,77.8,77.5,75.1z"/>
		<path class="st0" d="M55.4,61.4c-8.9,0-15.8-7-15.8-15.9c0-8.6,7-15.7,15.7-15.8c8.5-0.1,16,7.2,16.1,15.9
			C71.4,54.3,64.2,61.4,55.4,61.4z M67.5,45.8c0.1-6.8-5.1-12.1-11.8-12.2c-6.8-0.1-12.4,5.2-12.5,12c-0.1,6.5,5.7,12.4,12.3,12.4
			C62.1,57.8,67.5,52.4,67.5,45.8z"/>
		<path class="st0" d="M96.9,56.8c0,6.2-4.2,11.7-10.1,12.9c-6.5,1.3-12.7-1.8-15-7.6c-0.4-1.1-0.3-3.5,0.3-3.8
			c1.9-1.1,2.4,0.9,3,2.3c2,4.3,6.3,6.6,10.5,5.8c4.3-0.9,7.5-4.6,7.7-8.9c0.2-4.3-2.7-8.6-7.2-9.5c-2-0.4-4.3,0.2-6.4,0.7
			c-1.4,0.3-2.9,1.3-3.5-0.6c-0.2-0.7,1.1-2.3,2.1-2.8C86.9,41,96.8,47.2,96.9,56.8z"/>
	</g>
</g>
</svg>
