<svg id="icon-08-blue" version="1.1" xmlns="http://www.w3.org/2000/svg" xmlns:xlink="http://www.w3.org/1999/xlink" x="0px" y="0px"
	 viewBox="0 0 135.8 135.8" style="enable-background:new 0 0 135.8 135.8;" xml:space="preserve">
<style type="text/css">
	svg#icon-08-blue .st0{fill:#2193ce;}
</style>
<g>
	<path class="st0" d="M26.5,134.7L26.5,134.7c-0.3-0.1-0.6-0.2-0.9-0.2c-3.3-0.7-5.9-2.1-8-4.5c-2.4-2.7-3.6-6-3.6-10
		c0-25.2,0-50.4,0-75.6l0-30.6c0-0.4,0-0.8,0-1.1c0.4-5.2,2.7-8.9,6.9-11.3c1.1-0.6,2.4-1,3.8-1.5c0.6-0.2,1.2-0.4,1.7-0.6H105
		c0.3,0.1,0.6,0.2,0.8,0.3c6.9,1.5,11.2,6.7,11.4,13.5c0.1,6.4,0.1,12.9,0.1,19.2c0,1.4,0,2.9,0,4.3c-0.4-0.3-0.8-0.7-1.2-1
		c-1.7-1.5-3.5-3-5.2-4.5c-0.2-0.1-0.2-0.2-0.2-0.6c0-2.8,0-5.6,0-8.4c0-2.6,0-5.3,0-7.9c0-2-0.3-4.5-2.5-6.5
		c-1.9-1.7-4.1-1.8-5.6-1.8l-49,0c-8.3,0-16.5,0-24.8,0c-4.5,0-6.4,2.3-7.3,4.3c-0.7,1.4-0.7,3.1-0.7,4.3c0,9.8,0,19.6,0,29.4l0,76
		c0,5.2,3,8.2,8.1,8.2c10.2,0,20.5,0,30.7,0c14.2,0,28.5,0,42.7,0c1.3,0,5.4,0,7.5-3.9c0.6-1,0.9-2.2,0.9-3.3
		c0.1-5.7,0.1-11.6,0.1-17.4c0-0.5,0.1-0.6,0.3-0.8c2.1-1.8,4.2-3.6,6.3-5.4c0,1.4,0,2.8,0,4.3c0,6.3,0,12.8-0.1,19.2
		c-0.1,6.9-4.6,12.2-11.5,13.7c-0.3,0.1-0.5,0.1-0.8,0.2H26.5z"/>
	<path class="st0" d="M85.7,99.9c-0.2,0-1-0.1-1.3-0.9c-0.3-0.9-0.5-2-0.5-3.1c-0.1-3.4-0.1-7.1,0-11.6c0-0.7-0.1-1.7-0.8-2.5
		C82.2,81,81,81,80.6,81c-5.7,0-11.4,0-17.1,0l-13.3,0c-2.5,0-3.3-1.1-3.6-2.3c-0.1-0.3-0.2-0.8-0.2-1.4c0-6.9,0-13.7,0-20.6
		c0-2.5,1.2-3.7,3.8-3.7c4.3,0,8.6,0,12.9,0l20.8,0l0-3c0-0.6,0-1.2,0-1.7c0-1.2,0-2.4,0-3.5c0-3,0.1-6,0.2-9c0-1.4,0.7-1.7,1.6-1.7
		c0.1,0,0.2,0,0.3,0c0.1,0,0.3,0.1,0.3,0.1c3,2.5,5.9,5.1,8.8,7.6c1.6,1.4,3.2,2.8,4.8,4.1c3,2.6,14.8,12.8,17.6,15.2
		c1.9,1.7,3.8,3.3,5.8,5l1,0.9c-0.7,0.6-1.4,1.2-2.1,1.8c-6.2,5.4-12.4,10.8-18.6,16.2L86.7,99.5C86.3,99.9,85.9,99.9,85.7,99.9z"/>
</g>
</svg>
