<svg id="icon-04-blue" version="1.1" xmlns="http://www.w3.org/2000/svg" xmlns:xlink="http://www.w3.org/1999/xlink" x="0px" y="0px"
	 viewBox="0 0 135.8 135.8" style="enable-background:new 0 0 135.8 135.8;" xml:space="preserve">
<style type="text/css">
	svg#icon-04-blue .st0{fill:#2193ce;}
</style>
<path class="st0" d="M72.9,85.8c11.5-11.4,22.7-22.4,33.8-33.6c3.3-3.3,3.1-8.2,0.1-11.2c-3.2-3.3-7.9-3.2-11.7,0.5
	c-7.2,7-14.2,14.1-21.3,21.2c-0.7,0.7-1.3,1.7-2.2,1.9c-0.9,0.3-2.2,0.2-2.9-0.4c-0.4-0.3-0.2-1.8,0-2.6c0.2-0.6,0.9-1.1,1.4-1.6
	c7.2-7.2,14.3-14.4,21.5-21.5c5.6-5.6,13.2-5.8,18.2-0.7c5.1,5.2,4.9,12.5-0.8,18.2C95.5,69.8,81.9,83.4,68.2,97
	c-6.4,6.4-13.3,6.1-19.8-0.5c-7.9-8-15.9-15.9-23.8-23.8c-3.1-3.1-4.9-6.7-4.1-11.2c0.8-4.8,3.5-8.3,8.2-9.8
	c4.9-1.6,9.4-0.5,13.1,3.2c9.3,9.3,18.6,18.6,28,28C70.7,83.8,71.7,84.7,72.9,85.8z M69.3,89.4c-10.8-11-21.1-21.7-31.7-32.1
	c-3.1-3.1-7.7-2.4-10.6,0.5c-2.8,2.9-3.2,7.5-0.2,10.6c8.6,9,17.5,17.7,26.4,26.4c2.9,2.8,6.9,2.6,10,0.1
	C65.5,93.2,67.4,91.2,69.3,89.4z"/>
<path class="st0" d="M67.7,135.9C30.4,135.9,0,105.5,0,68.2S30.4,0.5,67.7,0.5s67.7,30.4,67.7,67.7S105.1,135.9,67.7,135.9z M67.7,7
	C34,7,6.6,34.5,6.6,68.2s27.4,61.2,61.2,61.2c33.7,0,61.2-27.4,61.2-61.2S101.4,7,67.7,7z"/>
</svg>
