<svg id="icon-profile" version="1.1" xmlns="http://www.w3.org/2000/svg" xmlns:xlink="http://www.w3.org/1999/xlink" x="0px" y="0px"
	 viewBox="0 0 135.8 135.8" style="enable-background:new 0 0 135.8 135.8;" xml:space="preserve">
<style type="text/css">
	svg#icon-profile .st0{fill:#FFFFFF;}
	svg#icon-profile .st1{fill:#2193CE;}
	svg#icon-profile .st2{opacity:0.5;fill:#2193CE;}
</style>
<g>
	<g>
		<path class="st0" d="M67.9,135.3c-37.2,0-67.4-30.2-67.4-67.4S30.7,0.5,67.9,0.5s67.4,30.2,67.4,67.4S105.1,135.3,67.9,135.3z"/>
		<path class="st1" d="M67.9,1c36.9,0,66.9,30,66.9,66.9c0,36.9-30,66.9-66.9,66.9S1,104.8,1,67.9C1,31,31,1,67.9,1 M67.9,0
			C30.4,0,0,30.4,0,67.9c0,37.5,30.4,67.9,67.9,67.9s67.9-30.4,67.9-67.9C135.8,30.4,105.4,0,67.9,0L67.9,0z"/>
	</g>
	<g>
		<path class="st1" d="M94.6,116.2L94.6,116.2c0-0.2,0-0.4,0-0.5c-0.1-7.5,0-15.1-0.2-22.6c-0.1-3-0.2-6-0.4-9.1
			c-0.3-4.5-1.8-8.4-4.1-11.7c-2.4-3.5-5.8-6.3-9.9-8.6c0,0,0,0,0,0c-1.5-1.2-3-1.5-4.3-0.9c-0.9,0.4-1.6,1.1-2.3,2.4
			c-1.6,2.9-3.3,5.7-5.4,9.3c-2.1-3.6-3.9-6.4-5.4-9.3c-0.7-1.2-1.4-2-2.3-2.4c-1.3-0.7-2.7-0.4-4.3,0.9c0,0,0,0,0,0
			c-4.1,2.3-7.5,5.1-9.9,8.6c-2.3,3.3-3.8,7.2-4.1,11.7c-0.2,3-0.4,6.1-0.4,9.1c-0.2,7.5-0.1,15-0.2,22.5c0,0.2,0,0.4,0,0.6
			c-0.1,1.2,0.2,3.6,3.6,3.6c0,0,0.1,0,0.1,0c0.3,0,0.5,0,0.8,0c6.1,0,14.7,0,22.8,0h1.9c7.1,0,14.3,0,19.7,0c0.3,0,0.6,0,0.8,0
			c0,0,0.1,0,0.1,0C94.5,119.9,94.7,117.4,94.6,116.2z M66.9,114.7c-6.1,0-12.3,0-18.6,0h-1.8v-0.8c0-10.1-0.6-19.7,0.2-29.2
			c0.1-1.7,0.5-3.4,1.1-4.9c0-0.1,0.1-0.3,0.1-0.4c1-2.4,2.4-4.6,4.3-6.5c0.3-0.3,0.5-0.5,0.8-0.8l0.1-0.1c0.3-0.3,0.6-0.6,1-0.8
			l0.1-0.1c0.3-0.2,0.6-0.5,0.9-0.7c0.2-0.1,0.4-0.3,0.6-0.4c0.4-0.3,0.9-0.6,1.3-0.9c0.1-0.1,0.3-0.2,0.4-0.3
			c0.2-0.1,0.4-0.2,0.6-0.3c2.3,4,4.4,7.6,6.5,11.2c1,1.6,1.9,2.5,2.8,2.7c0.1,0,0.1,0,0.2,0c0.1,0,0.2,0,0.3,0c0.1,0,0.1,0,0.2,0
			c0.9-0.1,1.8-1,2.8-2.7c2.2-3.6,4.2-7.2,6.6-11.2c0.4,0.2,0.8,0.5,1.2,0.7c0.2,0.1,0.4,0.3,0.6,0.4c0.4,0.3,0.8,0.5,1.1,0.8
			c0.2,0.2,0.4,0.3,0.6,0.5c0.4,0.3,0.8,0.6,1.2,1c0.2,0.2,0.4,0.3,0.6,0.5c0.1,0.1,0.2,0.2,0.3,0.2c1.9,1.8,3.4,3.9,4.4,6.3
			c0.1,0.2,0.1,0.3,0.2,0.5c0.7,1.7,1.1,3.5,1.3,5.5c0.8,9.5,0.2,19.1,0.2,29.2v0.8h-1.8c-6.3,0-12.5,0-18.6,0H66.9z"/>
		<path class="st1" d="M68,59.1c-11.9,0-21.3-9.4-21.3-21.4c0-11.6,9.5-21.1,21.1-21.3c11.5-0.2,21.5,9.7,21.6,21.4
			C89.5,49.5,79.8,59.1,68,59.1z M84.3,38c0.1-9.1-6.9-16.3-15.9-16.4c-9.2-0.1-16.7,7-16.9,16.1c-0.1,8.8,7.7,16.7,16.5,16.7
			C76.9,54.3,84.2,47,84.3,38z"/>
	</g>
</g>
</svg>
