<svg id="icon-03-blue" version="1.1" xmlns="http://www.w3.org/2000/svg" xmlns:xlink="http://www.w3.org/1999/xlink" x="0px" y="0px"
	 viewBox="0 0 135.8 135.8" style="enable-background:new 0 0 135.8 135.8;" xml:space="preserve">
<style type="text/css">
	svg#icon-03-blue .st0{fill:#2193ce;}
</style>
<g>
	<path class="st0" d="M6,127.7c-3.3,0-6-2.7-6-6V50.5c0-3.3,2.7-6,6-6h21.2c3.3,0,6,2.7,6,6v71.3c0,3.3-2.7,6-6,6H6z M5.2,122.5
		h22.7V49.7H5.2V122.5z"/>
	<path class="st0" d="M58.8,127.7c-3.3,0-6-2.7-6-6V12.4c0-3.3,2.7-6,6-6h21.2c3.3,0,6,2.7,6,6v109.3c0,3.3-2.7,6-6,6H58.8z
		 M58,122.5h22.7V11.7H58V122.5z"/>
	<path class="st0" d="M108.3,127.7c-3.3,0-6-2.7-6-6v-90c0-3.3,2.7-6,6-6h21.2c3.3,0,6,2.7,6,6v90c0,3.3-2.7,6-6,6H108.3z
		 M107.5,122.5h22.7V31h-22.7V122.5z"/>
</g>
</svg>
