<svg id="logo" version="1.1" xmlns="http://www.w3.org/2000/svg" xmlns:xlink="http://www.w3.org/1999/xlink" x="0px" y="0px"
  viewBox="0 0 252.2 172.5" style="enable-background:new 0 0 252.2 172.5;" xml:space="preserve">
	<style type="text/css">
		svg#logo .st0 {
			fill: #2193ce;
		}
		svg#logo .st1 {
			font-family: 'JaromThai';
		}
		svg#logo .st2 {
			font-size: 45px;
		}
		svg#logo .st3 {
			font-size: 25px;
		}
	</style>
	<g>
		<g>
			<g>
				<g>
					<path class="st0" d="M165.9,78.7c0,2.9-1.1,5-3.4,6.7c-2.8,2.2-6.1,3-9.5,3.4c-2.2,0.2-4.3,0.3-6.7,0.5c0,0.3-0.1,0.8,0,1.2
					c0.2,2.7-1,4.6-3.1,6c-3.4,2.4-7.3,3.3-11.3,3.7c-7.5,0.8-13.9-1.6-20.2-5.4c-8-4.9-16.2-9.5-24.3-14.2c-0.8-0.5-1.1-1-1.1-2
					c0-17.7,0-35.3,0-53c0-1.2,0.4-1.7,1.3-2.4c1.7-1.2,3-1.1,4.7,0c0.2,0.1,0.4,0.2,0.6,0.3c9.1,5.4,18.1,10.7,27.3,15.8
					c6,3.4,12.3,3.1,18.3-0.3c3.2-1.9,3.4-4.7,0.4-7c-2.1-1.6-4.5-2.9-6.9-4.2c-7.2-4.2-14.5-8.3-21.7-12.5c-0.8-0.5-1.5-0.6-2.3,0
					c-0.6,0.4-1.3,0.7-2.1,1.2c0-0.2,0-0.4,0-0.5c0-0.9,0-1.7,0-2.6c0-0.4,0.4-0.8,0.7-1c2.6-1.8,2.6-1.8,5.4-0.2
					c0.1,0,0.1,0.1,0.2,0.1c9.5,5.5,19,11.1,28.6,16.5c4.1,2.3,8.6,2.1,13.1,1.1c1.9-0.4,3.6-1.3,5-2.7c1.9-1.9,1.9-4.5-0.2-6.1
					c-1.5-1.2-3.2-2-4.8-3c-7.9-4.6-15.9-9.2-23.8-13.8c-1-0.6-1.8-0.7-2.7,0c-0.5,0.4-1.2,0.7-2,1.2c0-0.2,0-0.5,0-0.7
					c0-1,0-1.9,0-2.8c0-0.2,0.4-0.5,0.6-0.7c1.9-1.7,3.5-1.6,5.8-0.2c9.9,5.9,19.9,11.6,29.9,17.3c2.2,1.3,3.8,3.1,4.1,5.8
					c0,0.5,0,1,0,1.4C165.9,43.3,165.9,61,165.9,78.7z" />
				</g>
			</g>
		</g>
		<g>
			<text transform="matrix(1 0 0 1 0 143.3798)" class="st0 st1 st2">PRC E-Classroom</text>
		</g>
		<g>
			<text transform="matrix(1 0 0 1 30.5127 164.579)" class="st0 st1 st3">Stay on track for success</text>
		</g>
	</g>
</svg>