<svg id="plus-13" version="1.1" xmlns="http://www.w3.org/2000/svg" xmlns:xlink="http://www.w3.org/1999/xlink" x="0px" y="0px"
	 viewBox="0 0 135.8 135.8" style="enable-background:new 0 0 135.8 135.8;" xml:space="preserve">
<style type="text/css">
	svg#plus-13 .st0{fill:#FFFFFF;}
</style>
<g>
	<g>
		<g>
			<path class="st0" d="M90.4,68.3c0,0.5-0.1,0.9-0.3,1.3c-0.2,0.4-0.4,0.8-0.7,1c-0.3,0.3-0.6,0.5-1,0.7c-0.4,0.2-0.8,0.3-1.3,0.3
				H72.9c-0.2,0-0.5,0.1-0.6,0.3C72.1,72,72,72.2,72,72.4v14.4c0,0.5-0.1,0.9-0.3,1.3c-0.2,0.4-0.4,0.7-0.7,1s-0.6,0.5-1,0.7
				c-0.4,0.2-0.8,0.3-1.3,0.3c-0.5,0-0.9-0.1-1.3-0.3c-0.4-0.2-0.8-0.4-1.1-0.7c-0.3-0.3-0.6-0.6-0.7-1c-0.2-0.4-0.3-0.8-0.3-1.3
				V72.4c0-0.2-0.1-0.4-0.2-0.6c-0.2-0.2-0.4-0.3-0.6-0.3H50.3c-0.5,0-0.9-0.1-1.3-0.3c-0.4-0.2-0.8-0.4-1.1-0.7
				c-0.3-0.3-0.6-0.6-0.7-1c-0.2-0.4-0.3-0.8-0.3-1.3c0-0.5,0.1-0.9,0.3-1.3c0.2-0.4,0.4-0.8,0.7-1.1c0.3-0.3,0.7-0.5,1.1-0.7
				c0.4-0.2,0.8-0.3,1.3-0.3h14.2c0.2,0,0.4-0.1,0.6-0.2c0.2-0.2,0.2-0.4,0.2-0.6V49.7c0-1,0.3-1.8,1-2.4c0.6-0.6,1.5-1,2.4-1
				c0.4,0,0.9,0.1,1.3,0.3c0.4,0.2,0.7,0.4,1,0.7s0.5,0.7,0.7,1.1c0.2,0.4,0.3,0.9,0.3,1.3v14.4c0,0.2,0.1,0.4,0.3,0.6
				c0.2,0.2,0.4,0.2,0.6,0.2h14.1c0.5,0,0.9,0.1,1.3,0.3c0.4,0.2,0.8,0.4,1,0.7c0.3,0.3,0.5,0.6,0.7,1.1
				C90.3,67.4,90.4,67.8,90.4,68.3z"/>
		</g>
	</g>
	<path class="st0" d="M67.9,135.8C30.5,135.8,0,105.4,0,67.9S30.5,0,67.9,0c37.4,0,67.9,30.5,67.9,67.9S105.4,135.8,67.9,135.8z
		 M67.9,6.3c-34,0-61.6,27.7-61.6,61.6s27.7,61.6,61.6,61.6c34,0,61.6-27.7,61.6-61.6S101.9,6.3,67.9,6.3z"/>
</g>
</svg>
